<?xml version="1.0" encoding="UTF-8" standalone="no"?>
<svg
   version="1.1"
   width="647"
   height="645"
   id="svg61"
   sodipodi:docname="Inscriptio2025-v2Logo.svg"
   inkscape:version="1.4 (86a8ad7, 2024-10-11)"
   inkscape:export-filename="Inscriptio2025-v2LogoLimpio.png"
   inkscape:export-xdpi="96"
   inkscape:export-ydpi="96"
   xmlns:inkscape="http://www.inkscape.org/namespaces/inkscape"
   xmlns:sodipodi="http://sodipodi.sourceforge.net/DTD/sodipodi-0.dtd"
   xmlns="http://www.w3.org/2000/svg"
   xmlns:svg="http://www.w3.org/2000/svg">
  <defs
     id="defs61" />
  <sodipodi:namedview
     id="namedview61"
     pagecolor="#ffffff"
     bordercolor="#000000"
     borderopacity="0.25"
     inkscape:showpageshadow="2"
     inkscape:pageopacity="0.0"
     inkscape:pagecheckerboard="0"
     inkscape:deskcolor="#d1d1d1"
     inkscape:zoom="0.6255814"
     inkscape:cx="238.9777"
     inkscape:cy="443.58736"
     inkscape:window-width="1366"
     inkscape:window-height="697"
     inkscape:window-x="1912"
     inkscape:window-y="-8"
     inkscape:window-maximized="1"
     inkscape:current-layer="svg61" />
  <path
     d="m 175.81926,12.664814 c 5.55897,0.0023 11.11794,-0.0013 16.67691,-0.004 10.8008,-0.0044 21.6016,-0.0035 32.4024,-5.87e-4 8.77451,0.0023 17.54902,0.0026 26.32354,0.0015 l 3.81721,-4.64e-4 c 2.56031,-3.2e-4 5.12063,-6.44e-4 7.68094,-9.73e-4 23.15569,-0.0027 46.31139,7.2e-5 69.46708,0.0053 21.10776,0.0048 42.21552,0.0043 63.32328,-4.61e-4 23.82469,-0.0054 47.64937,-0.0075 71.47406,-0.0044 2.53683,3.19e-4 5.07367,6.33e-4 7.6105,9.43e-4 l 3.78109,4.68e-4 c 8.78176,8.62e-4 17.56353,-5.92e-4 26.34529,-0.0029 10.67273,-0.0028 21.34545,-0.0021 32.01818,0.0033 5.44108,0.0026 10.88215,0.0037 16.32322,3.51e-4 4.9773,-0.003 9.95456,-0.0013 14.93185,0.004 1.80148,0.0011 3.60295,5.45e-4 5.40442,-0.0019 2.44593,-0.003 4.89176,7.4e-5 7.33768,0.0047 l 2.12361,-0.0071 c 6.04581,0.02299 11.76601,1.215079 17.48799,2.632936 0.76585,0.18977 1.49039,0.518537 2.23438,0.78125 0.67261,0.23751 1.34602,0.472893 2.01562,0.71875 0.88534,0.325067 1.79419,0.596767 2.64678,1 0.57438,0.271661 1.11045,0.618653 1.65201,0.950976 0.44141,0.270865 0.87544,0.55415 1.30089,0.849442 2.26198,1.569973 4.45071,3.243326 6.65009,4.89986 0.84012,0.632764 1.74061,1.197285 2.50023,1.924722 0.83209,1.228671 2.12147,1.759169 3.04926,2.875464 4.96593,5.974899 4.81572,3.946852 10.20074,14.499536 2.08037,6.040731 3.42093,23.423612 3.37422,35.761627 0.003,2.193801 0.007,4.387601 0.012,6.581398 0.0105,5.99949 0.002,11.998829 -0.009,17.998316 -0.009,6.4813 -4e-4,12.96258 0.006,19.44389 0.01,11.9526 0.004,23.90516 -0.007,35.85776 -0.0106,11.04222 -0.0151,22.08444 -0.0137,33.12667 l 2.5e-4,2.22256 c 3.6e-4,2.97754 7.4e-4,5.95508 10e-4,8.93261 0.004,27.90948 -0.009,55.81893 -0.0295,83.72839 -0.0184,24.78097 -0.0242,49.5619 -0.0187,74.34287 l 10e-4,4.77464 5.2e-4,2.38437 c 8.6e-4,3.96109 0.002,7.92219 0.002,11.88328 l 4.8e-4,2.36822 c 0.004,20.72574 -10e-4,41.45148 -0.01,62.17722 -9.1e-4,2.23068 -0.002,4.46136 -0.003,6.69204 -6e-4,1.47968 -10e-4,2.95937 -0.002,4.43905 -0.004,10.30456 -0.005,20.60912 -0.003,30.91368 0.002,13.27959 -0.002,26.55915 -0.0172,39.83873 -0.007,6.40144 -0.0113,12.80284 -0.007,19.20428 0.004,5.86224 -0.001,11.7244 -0.0136,17.58663 -0.003,2.11822 -0.003,4.23644 0.002,6.35466 0.0458,25.76185 0.0458,25.76185 -3.2668,32.3871 -7.03678,9.03157 -12.94595,19.99237 -23,26 -8.35314,3.22402 -15.28707,5.30193 -24.26348,5.2461 l -2.77703,0.007 c -3.07535,0.005 -6.15049,-0.004 -9.22583,-0.0126 -2.22519,8.8e-4 -4.45037,0.003 -6.67555,0.005 -6.11826,0.004 -12.23645,-0.004 -18.3547,-0.0136 -5.91908,-0.008 -11.83815,-0.006 -17.75724,-0.005 -12.10724,0.003 -24.21445,-0.004 -36.32169,-0.016 -11.98751,-0.0118 -23.97502,-0.0195 -35.96254,-0.0217 l -2.25871,-4.2e-4 c -3.78538,-6.7e-4 -7.57076,-0.001 -11.35614,-0.002 -26.81119,-0.004 -53.62238,-0.0177 -80.43356,-0.0366 -26.04655,-0.0184 -52.0931,-0.0325 -78.13965,-0.041 l -2.43298,-8e-4 c -8.06286,-0.003 -16.12574,-0.005 -24.18861,-0.008 -16.42497,-0.005 -32.84994,-0.0107 -49.27491,-0.0167 l -2.28846,-8.3e-4 c -50.42964,-0.0184 -100.85928,-0.0501 -151.288917,-0.0839 -5.68436,-0.74708 -7.38742,-1.24668 -15,-5 0,0 -23.58858,-23.6216 -24.31343,-31.33899 -3.80995,-32.60932 -3.35568,-65.1275 -3.24876,-90.72863 0.11637,-4.7756 0.473,-27.88298 0.56343,-45.93238 v -25 -6 h 2 l -0.42952,-2.25291 c -1.60723,-9.23591 -1.84294,-18.2208 -1.79753,-27.55299 5.7e-4,-1.64722 2.5e-4,-3.29444 -8.8e-4,-4.94165 -5.7e-4,-4.43096 0.0111,-8.8618 0.0251,-13.29272 0.0126,-4.64577 0.0137,-9.29153 0.0161,-13.93731 0.006,-8.77921 0.0226,-17.55837 0.0427,-26.33756 0.0224,-10.00252 0.0334,-20.00504 0.0434,-30.00759 0.0209,-20.55911 0.056,-41.11819 0.10065,-61.67727 h 2 v -6 h -2 l 0.5625,-3.0625 c 0.44214,-3.97924 0.0384,-6.99822 -0.5625,-10.9375 -0.21837,-5.15205 -0.13939,-9.95414 1,-15 l -1,-1 c -0.0994,-1.64863 -0.1308,-3.30149 -0.13281,-4.95312 l -0.004,-3.06641 0.0117,-3.23047 -0.0117,-3.18359 0.004,-3.08203 0.003,-2.82129 c 0.12883,-2.65152 0.57006,-5.07261 1.12939,-7.66309 0.0883,-1.6857 0.13022,-3.37449 0.125,-5.0625 l 0.008,-2.53515 c -0.0379,-2.3532 -0.0379,-2.3532 -0.70312,-4.33594 -0.59185,-2.84625 0.0877,-5.20473 0.57031,-8.06641 0.3335,-4.6182 0.43253,-9.24712 0.5625,-13.875 l 0.0672,-2.20202 c 0.347,-11.79167 0.38926,-23.57745 0.33768,-35.37288 -0.0104,-2.39555 -0.0191,-4.7911 -0.0275,-7.18666 -0.0269,-7.271751 -0.0613,-14.54307 -0.13193,-21.814544 -0.027,-3.096478 -0.0414,-6.192937 -0.0531,-9.289507 -0.008,-1.44342 -0.0219,-2.886823 -0.0417,-4.330132 -0.18636,-13.903804 0.30473,-27.707909 9.28678,-38.929248 l 1.81227,-2.725139 c 2.63209,-2.385793 3.34838,-3.891586 6.18773,-5.274861 h 2 l 1,-3 c 1.96467,-1.067752 3.96856,-2.065535 6,-3 l 3.6494,-1.250697 c 8.03595,-1.885736 15.71266,-2.943832 23.9303,-3.273246 l 3.03858,-0.126164 c 10.782743,-0.431494 21.567516,-0.693726 32.356547,-0.904306 l 3.16757,-0.06355 c 22.35997,-0.440358 44.71483,-0.52564 67.07842,-0.511712 z"
     fill="#11519a"
     id="path1"
     sodipodi:nodetypes="cccsscsssscsssccccaaaaaaaascccccsssssscsssssssssccccccccccssssssssssccccccccccccccccccccccccccccccccccccccccccccccccccccc" />
  <path
     d="m 243.59851,38.795539 c 1.20846,1.877809 2.33969,3.805431 3.4375,5.75 8.90247,14.985925 20.82807,25.530193 37.8711,30.574219 3.58021,0.898949 7.01234,1.514983 10.6914,1.675781 l 3.10938,0.191406 c 7.89147,0.271818 14.43505,-0.846776 21.92969,-3.316406 2.96093,-0.875 2.96093,-0.875 6.96093,-0.875 l 1.20703,3.289062 c 0.53498,1.445379 1.07015,2.890688 1.60547,4.335938 l 0.79102,2.160156 c 1.5682,4.220585 3.34589,8.199768 5.39648,12.214844 2.18697,4.913566 4.09676,9.888731 5.9375,14.937501 1.75906,4.76719 3.59384,9.32182 5.99609,13.80469 1.90541,4.03416 3.36232,8.25406 4.87305,12.44922 1.48837,4.094 3.22522,7.91497 5.19336,11.80859 0.69617,1.82233 1.36406,3.65578 2,5.5 1.42278,4.00326 3.02941,7.73017 5,11.5 1.86454,4.13441 3.47743,8.29003 5,12.5625 1.04903,2.92854 2.10716,5.65181 3.5,8.4375 1.40281,2.80563 2.4523,5.5474 3.5,8.5 1.42278,4.00326 3.02941,7.73017 5,11.5 1.84645,4.09431 3.4402,8.20294 4.9375,12.4375 1.44108,4.02189 3.09342,7.76254 5.0625,11.54687 2.81339,5.67074 4.89011,11.68185 7,17.64063 1.42148,3.95906 3.06513,7.64051 5.00391,11.36719 1.48938,3.00212 2.70121,6.09484 3.91015,9.21875 0.80114,2.05759 1.63412,4.10284 2.48438,6.14062 l 1.41406,3.46094 1.33203,3.20703 c 0.95271,3.31925 1.10932,4.77618 -0.14453,7.98047 -1.60647,1.72476 -3.28108,3.38728 -5,5 -1.532,1.9123 -3.03023,3.85197 -4.5,5.8125 -5.50349,7.26693 -11.24935,14.32458 -17.0249,21.37598 -1.27057,1.56034 -2.52483,3.13393 -3.77588,4.70996 -9.39109,11.77865 -20.02001,22.49816 -30.63672,33.16406 l -2.07617,2.09033 c -3.93645,3.92404 -7.98092,7.66436 -12.18921,11.29517 -2.24079,1.93516 -4.42448,3.92938 -6.60962,5.927 -5.25572,4.7254 -10.64014,9.24661 -16.1875,13.625 l -2.16748,1.71533 c -13.44253,10.58219 -27.33299,20.21021 -41.83252,29.28467 l -2.50879,1.57617 c -28.91108,18.05329 -59.30727,32.90552 -91.3142,44.62622 -4.21514,1.54434 -8.42225,3.11097 -12.60279,4.74683 -2.99624,1.17244 -5.32993,2.05078 -8.57422,2.05078 l -1.13672,-3.11328 c -2.9903,-8.12258 -6.18478,-16.0467 -9.86328,-23.88672 -1.04321,-2.3716 -2.07801,-4.74653 -3.10547,-7.125 -0.96122,-2.12927 -0.96122,-2.12927 -2.89453,-4.875 -0.4703,-1.61244 -0.93625,-3.22634 -1.375,-4.84766 -2.46985,-8.50554 -5.69815,-16.76207 -10.625,-24.15234 -0.47145,-1.61639 -0.93848,-3.23425 -1.37891,-4.85938 -2.15298,-7.42034 -5.13416,-14.49831 -8.39062,-21.49218 -1.50234,-3.2336 -2.92203,-6.5004 -4.33594,-9.77344 -0.96122,-2.12927 -0.96122,-2.12927 -2.89453,-4.875 -0.49744,-1.65814 -0.99011,-3.31805 -1.44531,-4.98828 -2.36172,-8.56539 -5.60737,-16.59073 -10.554687,-24.01172 -0.471,-1.61485 -0.93732,-3.23127 -1.375,-4.85547 -2.69562,-9.24936 -6.24213,-18.65434 -10.6875,-27.20703 -1.80476,-3.49672 -3.03422,-7.03756 -4.22656,-10.78125 -1.46227,-4.43502 -3.41189,-8.59766 -5.58594,-12.71875 -2.48535,-4.87547 -4.17129,-10.02197 -5.97266,-15.17969 -1.54156,-4.35817 -3.35302,-8.54266 -5.30468,-12.73047 -2.59242,-5.60245 -4.88613,-11.21334 -6.94922,-17.03125 -1.62454,-4.51339 -3.53832,-8.82081 -5.77344,-13.05859 -1.88507,-3.68412 -3.22042,-7.46236 -4.5625,-11.375 -1.75451,-5.08917 -3.73295,-9.57351 -6.64453,-14.09766 -1.24827,-2.67182 -1.55039,-4.05394 -0.91797,-6.96484 2.21083,-1.76867 4.19186,-3.11453 6.625,-4.5 1.24468,-0.73538 2.4869,-1.47495 3.72656,-2.21875 l 1.84864,-1.10547 c 1.84218,-1.20347 3.47108,-2.52006 5.13574,-3.95703 2.66406,-2.21875 2.66406,-2.21875 4.66406,-2.21875 l 0.25391,-1.65234 c 0.99655,-3.13576 2.70915,-5.28591 4.68359,-7.91016 3.72836,-4.98693 6.25858,-8.606 7.5625,-14.75 0.70516,-3.29971 1.40228,-6.42347 2.57422,-9.58984 1.13869,-3.81004 1.2669,-7.40737 1.23828,-11.34766 l -0.006,-2.2749 c -0.0922,-5.11974 -0.81571,-9.5432 -2.57202,-14.38135 -1.05476,-3.00688 -1.3911,-5.9347 -1.73448,-9.09375 l 1.90625,-0.51563 c 5.00332,-1.4166 9.48907,-3.05825 14.07031,-5.50781 2.97356,-1.435114 6.07399,-2.342929 9.23828,-3.265624 1.988167,-0.562381 5.007817,-3.421875 7.847657,-4.085937 4.25818,-1.091842 7.79827,-2.445665 11.64453,-4.523438 3.02061,-1.451125 6.12721,-2.504816 9.29297,-3.601562 4.54885,-1.580738 8.78012,-3.28198 13.02344,-5.539063 2.37664,-1.15544 4.79667,-2.020833 7.28906,-2.898437 4.76005,-1.678473 9.29969,-3.65216 13.875,-5.777344 5.8849,-2.689072 11.89385,-5.098411 17.88672,-7.535156 4.8458,-1.985475 9.58281,-4.03581 14.23828,-6.4375 3.83248,-1.968028 7.5402,-3.127557 11.6875,-4.3125 2.55343,-1.22697 5.05985,-2.531061 7.57422,-3.835937 3.04589,-1.461635 6.17424,-2.271483 9.42578,-3.164063 l 2.5,-1.5 c 3.06651,-1.839902 6.04888,-2.591808 9.5,-3.5 l 3.3125,-1.125 c 2.6875,-0.875 2.6875,-0.875 4.6875,-0.875 z"
     fill="#fe8300"
     id="path2"
     sodipodi:nodetypes="ccccccccccccccccccsccccccccccccccccccccccccscccccccccccccccccccccccccccccccccccccccccccccccccccsccc" />
  <path
     d="m 207.12463,12.660239 c 6.97856,0.0023 13.95711,0.0026 20.93567,0.0015 l 3.04435,-4.64e-4 c 2.04227,-3.2e-4 4.08455,-6.44e-4 6.12682,-9.73e-4 18.96596,-0.0028 37.93191,3.88e-4 56.89787,0.0058 16.25445,0.0045 32.5089,0.0037 48.76336,-9.19e-4 18.97903,-0.0053 37.95806,-0.0075 56.93709,-0.0044 2.02034,3.19e-4 4.04067,6.33e-4 6.06101,9.43e-4 l 3.01091,4.68e-4 c 6.98787,8.62e-4 13.97573,-5.91e-4 20.9636,-0.0029 8.48677,-0.0028 16.97354,-0.0021 25.46031,0.0033 4.32503,0.0026 8.65005,0.0037 12.97508,3.51e-4 3.95643,-0.003 7.91282,-0.0013 11.86924,0.004 1.43134,0.0011 2.86268,5.47e-4 4.29402,-0.0019 1.94426,-0.003 3.88853,6.75e-4 5.83279,0.0047 l 3.27256,4.92e-4 c 3.23355,-0.02226 4.1258,-0.07127 7.18092,0.0014 l -0.14986,3.148931 -0.002,-0.02498 0.0703,3.417969 c 0.15882,11.255476 -0.53726,22.219614 -1.74512,33.402832 -0.37647,3.680452 -0.7003,7.364643 -1.02051,11.050293 -0.18554,2.083865 -0.37223,4.167624 -0.55941,6.251343 -0.17822,2.013661 -0.34725,4.028129 -0.51603,6.042602 -0.59675,6.499021 -1.41925,12.529169 -3.51806,18.722657 -1.68304,4.998835 -2.66157,10.118665 -3.14868,15.362305 -0.5789,6.03555 -2.11831,11.87333 -3.5625,17.75 l -0.48113,0.56516 -1.89387,2.99734 c -0.49162,3.96066 -1.51909,7.59933 -2.625,11.4375 -0.28346,1.65565 -0.55437,3.31348 -0.81641,4.97266 -1.12155,6.28392 -3.04826,12.14865 -5.18359,18.15234 l -1.07813,3.14844 c -2.66538,7.59831 -1.66631,8.09785 -3.9228,9.2261 -0.76922,2.0761 -0.96903,1.97619 -1.57481,4.46259 -1.14672,4.06565 -3.35249,7.24706 -5.36176,10.95584 -2.66905,5.23015 -4.70806,10.73311 -6.8125,16.20703 -2.46787,6.3016 -5.4063,12.12764 -8.70313,18.04297 -1.75463,3.21238 -3.20252,6.4316 -4.54687,9.83203 h -2 l -0.77564,2.60742 c -1.27614,3.53604 -2.87305,6.45785 -4.81421,9.67383 l -1.04603,1.74719 c -1.09507,1.82721 -2.19786,3.64959 -3.30162,5.47156 -1.0989,1.82271 -2.19606,3.64642 -3.29091,5.47156 -0.99461,1.6567 -1.99417,3.31043 -2.99401,4.96399 -1.83012,3.06583 -2.07989,3.06583 -3.38525,6.39453 -1.89187,2.57001 -1.54219,1.42108 -2.9927,4.01959 l -1.33713,2.15033 -1.0625,2.5 -2.50046,3.49768 -1.41751,-4.91955 c -5.09434,-13.60394 -5.09434,-13.60394 -11.20703,-26.76563 -1.72839,-3.35348 -2.8905,-6.73456 -4.03125,-10.32422 -2.17256,-6.40702 -4.84827,-12.67393 -7.96875,-18.67578 -1.78499,-3.45527 -2.98925,-6.96791 -4.16797,-10.66797 -1.32157,-4.0085 -3.08782,-7.81436 -4.86719,-11.63672 -2.59153,-5.59516 -4.88068,-11.20048 -6.94141,-17.01172 -1.66198,-4.61741 -3.64175,-9.02014 -5.89843,-13.37109 -1.80655,-3.54467 -3.02546,-7.11885 -4.21875,-10.90625 -0.77206,-2.19263 -1.70358,-4.16138 -2.78125,-6.21875 -1.84221,-3.5233 -3.0881,-7.07333 -4.29297,-10.85547 -1.96296,-5.95395 -4.81433,-11.60914 -7.42578,-17.30078 -2.9473,-6.54157 -5.5563,-13.15405 -8.03125,-19.88281 -2.3246,-6.27156 -4.96078,-12.381858 -7.75,-18.460941 l -1.29297,-2.847656 c -0.72542,-1.59405 -1.45565,-3.185944 -2.19531,-4.773437 -1.49528,-3.295274 -2.01172,-5.163587 -2.01172,-8.878907 -1.87575,0.455278 -3.75057,0.914372 -5.625,1.375 l -3.16407,0.773438 c -3.20227,0.797929 -3.20227,0.797929 -6.19531,1.9375 -13.07486,3.963108 -29.23659,0.08403 -41.01562,-6.085938 -12.23191,-7.701573 -20.96091,-17.405956 -28,-30 v -2 l -1.72266,0.804688 c -3.66122,1.674751 -7.14374,3.157459 -11.02734,4.257812 -3.22318,0.766219 -3.22318,0.766219 -5.625,2.4375 -2.53138,1.446505 -4.12212,1.864864 -6.9375,2.375 -3.44312,0.67155 -5.79242,1.648721 -8.6875,3.625 -2.85766,1.950466 -5.09379,2.893414 -8.5,3.5 -4.18813,0.75758 -6.86005,2.351064 -10.35156,4.710938 -3.23245,1.939467 -6.67329,3.039668 -10.22657,4.261719 -6.99072,2.45797 -13.76552,5.474131 -20.48437,8.589843 -4.55572,2.100619 -9.17786,3.813577 -13.90625,5.480469 -2.18238,0.82513 -4.16415,1.737146 -6.21875,2.832031 -5.24353,2.746099 -10.84827,4.63434 -16.39453,6.667969 -3.19703,1.175186 -6.34094,2.447372 -9.48047,3.769531 -3.8456,1.568171 -12.4375,5.6875 -12.4375,5.6875 -2.152347,1.027344 -2.152347,1.027344 -4.937497,1.9375 -3.85462,1.301561 -7.62309,2.676251 -11.375,4.250001 -3.55257,1.44482 -6.84657,2.40819 -10.6875,2.8125 l 0.58593,1.94141 0.78907,2.62109 0.77343,2.56641 0.85157,2.87109 1.07812,3.33203 c 1.00017,3.9795 1.30531,7.71496 1.29688,11.79297 l -4.9e-4,2.23779 c -0.14388,7.01687 -1.97398,13.06882 -4.37451,19.63721 l -0.75,3.5625 c -1.70851,4.69839 -4.43453,8.47878 -7.27735,12.57031 -1.98214,2.80032 -1.98214,2.80032 -3.55859,5.61328 -1.93707,3.08755 -4.3278,4.33228 -7.41406,6.25391 -1.32004,0.99003 -2.63218,1.99065 -3.9375,3 -3.53828,2.68609 -7.15854,4.88535 -11.0625,7 0.24719,4.61433 0.60517,7.79456 3.25,11.625 3.18882,4.64499 4.77439,9.69011 6.53906,15.00781 1.18068,3.28307 2.60191,6.27559 4.21094,9.36719 1.81897,4.03338 3.39782,8.0795 4.875,12.25 1.72285,4.80552 3.71645,9.42418 5.8789,14.04688 2.99627,6.49973 5.55462,13.10966 7.9961,19.83007 1.51439,4.10543 3.23113,7.98153 5.25,11.87305 1.86453,4.13441 3.47742,8.29003 5,12.5625 1.42771,3.98028 3.07576,7.66921 5,11.4375 0.9958,2.39425 1.94516,4.80419 2.89062,7.21875 1.19351,2.99217 2.46362,5.94614 3.73438,8.90625 1.45059,3.44075 2.68713,6.73066 3.5,10.375 0.863017,3.45208 1.705317,4.8096 3.874997,7.5 1.0688,2.32348 2.0515,4.62875 3,7 l 1.00781,2.39453 c 1.64257,3.96042 3.11844,7.79075 4.05469,11.98047 0.66216,3.51413 0.66216,3.51413 2.38281,5.54297 1.71694,2.29932 2.47168,4.30028 3.36719,7.01953 1.92983,5.55105 4.30359,10.80991 6.82031,16.11719 1.83874,3.96117 3.41148,7.72892 4.30469,12.00781 0.79452,3.32704 1.90206,5.25856 4.0625,7.9375 1.0688,2.32348 2.0515,4.62875 3,7 l 1.00781,2.39453 c 1.64257,3.96042 3.11844,7.79075 4.05469,11.98047 0.66216,3.51413 0.66216,3.51413 2.38281,5.54297 1.71694,2.29932 2.47168,4.30028 3.36719,7.01953 1.92983,5.55105 4.30359,10.80991 6.82031,16.11719 3.36719,7.25388 3.36719,7.25388 3.36719,11.94531 -36.48929,11.64873 -74.307737,19.38771 -112.562497,22.125 l -3.3418,0.26172 c -8.04248,0.59088 -26.29366,0.51337 -26.29366,0.51337 0,0 0.18274,-22.33522 0.19803,-32.90009 -0.0406,-1.66617 -0.0427,-3.33388 0,-5 v -25 -6 c 0.25441,-7.37422 -0.23941,-21.39985 -0.22705,-29.80591 5.6e-4,-1.64721 2.4e-4,-3.29443 -8.9e-4,-4.94165 -5.7e-4,-4.43095 0.0111,-8.86179 0.0251,-13.29272 0.0126,-4.64576 0.0137,-9.29153 0.0161,-13.9373 0.006,-8.77921 0.0226,-17.55837 0.0427,-26.33756 0.0224,-10.00252 0.0334,-20.00505 0.0434,-30.00759 0.0208,-20.55912 0.056,-41.11819 0.10065,-61.67727 l 0.0219,0.0177 -0.0177,-6.03532 -0.004,0.0177 c -0.11591,-11.72371 -0.0566,-23.30753 -0.13282,-34.95312 0.003,-4.18752 -0.004,-8.37499 0,-12.5625 -0.13754,-10.86296 0.0281,-21.10754 -0.0663,-31.28364 0.66284,-31.08117 -0.32301,-62.17121 0.31352,-93.271492 1.39856,-28.42641 7.58476,-38.901155 21.88529,-49.929249 10.28241,-6.056656 21.80706,-7.178599 33.72429,-7.523956 l 3.06173,-0.126167 c 9.95645,-0.399075 19.91315,-0.696866 29.875347,-0.904076 l 3.03081,-0.06352 c 33.60567,-0.674982 67.22355,-0.529064 100.83412,-0.517659 z"
     fill="#0295da"
     id="path3"
     sodipodi:nodetypes="cssccssscsssccccccccccccccccccccccccccccccccccccccccccccccccccccccccccccccccccccccccccccccccccccccccccccccccccccccccccccccccccccccccccccccccccccccccccccsccccccc" />
  <path
     d="m 243.59851,38.795539 c 1.20846,1.877809 2.33969,3.805431 3.4375,5.75 8.90247,14.985925 20.82807,25.530193 37.8711,30.574219 3.58021,0.898949 7.01234,1.514983 10.6914,1.675781 l 3.10938,0.191406 c 7.89147,0.271818 14.43505,-0.846776 21.92969,-3.316406 2.96093,-0.875 2.96093,-0.875 6.96093,-0.875 l 1.20703,3.289062 c 0.53498,1.445379 1.07015,2.890688 1.60547,4.335938 l 0.79102,2.160156 c 1.5682,4.220585 3.34589,8.199768 5.39648,12.214844 2.18697,4.913566 4.09676,9.888731 5.9375,14.937501 1.75906,4.76719 3.59384,9.32182 5.99609,13.80469 1.90541,4.03416 3.36232,8.25406 4.87305,12.44922 1.48837,4.094 3.22522,7.91497 5.19336,11.80859 0.69617,1.82233 1.36406,3.65578 2,5.5 1.42278,4.00326 3.02941,7.73017 5,11.5 1.86454,4.13441 3.47743,8.29003 5,12.5625 1.04903,2.92854 2.10716,5.65181 3.5,8.4375 1.40281,2.80563 2.4523,5.5474 3.5,8.5 1.42278,4.00326 3.02941,7.73017 5,11.5 1.84645,4.09431 3.4402,8.20294 4.9375,12.4375 1.44108,4.02189 3.09342,7.76254 5.0625,11.54687 2.81339,5.67074 4.89011,11.68185 7,17.64063 1.42148,3.95906 3.06513,7.64051 5.00391,11.36719 1.48938,3.00212 2.70121,6.09484 3.91015,9.21875 0.80114,2.05759 1.63412,4.10284 2.48438,6.14062 l 1.41406,3.46094 1.33203,3.20703 c 0.95271,3.31925 1.81577,3.36328 0.56192,6.56757 -1.60715,1.72413 -3.98928,4.79832 -5.70645,6.4129 -1.68499,2.08555 -3.32631,4.17256 -4.9375,6.3125 l -1.3125,1.71948 c -2.92892,3.8453 -5.79716,7.73219 -8.59375,11.67505 l -1.15625,1.29297 h -2 l -1.1875,-3.25 c -3.39166,-9.03333 -7.28475,-17.87709 -11.03996,-26.76401 -6.94101,-16.42816 -13.83116,-32.8771 -20.65285,-49.35519 -0.81896,-1.97771 -1.6388,-3.95506 -2.45959,-5.93201 -4.06308,-9.79016 -8.04064,-19.58643 -11.69429,-29.53717 -1.44828,-3.90397 -3.0608,-7.60612 -5.00926,-11.28174 -2.05973,-4.04796 -3.68794,-8.29899 -5.39405,-12.50488 l -1.20044,-2.93896 c -2.15413,-5.31398 -4.18569,-10.63889 -6.04956,-16.06104 -1.90377,-5.51961 -4.3352,-10.578 -7.03125,-15.75 -1.07868,-2.20998 -1.8562,-4.194 -2.46875,-6.5625 -0.66541,-3.07934 -0.66541,-3.07934 -2.3125,-5.5625 -1.84105,-3.06842 -2.56431,-6.04966 -3.5,-9.5 -0.50578,-1.41563 -1.02686,-2.82587 -1.5625,-4.23047 l -0.8164,-2.14917 -0.6211,-1.62036 -1.73388,-0.10425 c -27.10033,-1.74483 -52.22747,-8.5297 -71.26612,-29.083251 -2.24142,-2.447743 -2.24142,-2.447743 -5.4375,-3 -2.74713,1.27306 -5.42181,2.665568 -8.10547,4.066406 -5.63906,2.57299 -12.21958,5.121094 -18.45703,5.121094 l -1,3 c -2.11718,0.992187 -2.11718,0.992187 -4.875,1.875 -3.99499,1.352309 -7.80723,2.831641 -11.625,4.625 -7.5956,3.515681 -15.10221,6.753531 -23.5,7.500001 l -1,3 c -2.15234,1.02734 -2.15234,1.02734 -4.9375,1.9375 -3.67151,1.24586 -7.28995,2.5231 -10.875,4 -3.98386,1.61627 -8.00626,3.07519 -12.0625,4.5 -5.69821,2.00747 -11.25657,4.23731 -16.79688,6.64453 -2.32812,0.91797 -2.32812,0.91797 -4.32812,0.91797 l 0.10547,3.76953 c 0.30973,15.87636 0.30973,15.87636 -2.32813,23.76563 -0.83199,2.63811 -1.21313,5.16442 -1.58984,7.90234 -1.07529,6.47043 -4.03119,11.87518 -7.1875,17.5625 h -1.999997 l -0.66406,2.55469 c -1.62196,4.18295 -3.89434,7.12368 -6.71094,10.57031 l -1.46094,1.83984 c -2.09024,2.60712 -4.09083,4.96904 -6.57812,7.21485 -1.815,1.65463 -1.815,1.65463 -1.47656,3.69531 l 0.89062,2.125 1.01563,2.8125 c 2.8832,7.44523 5.88017,14.8319 8.98437,22.1875 4.87684,11.58609 4.87684,11.58609 6.5625,16.1875 2.001487,5.43907 4.366657,10.71365 6.999997,15.875 1.42096,2.90369 2.53147,5.8075 3.63672,8.83984 0.77655,2.0342 1.6412,3.9948 2.55078,5.97266 2.08305,4.59707 3.88079,9.28969 5.6875,14 1.91354,4.98462 3.85377,9.91449 6.125,14.75 2.97889,6.35955 5.3223,12.94773 7.75293,19.53027 0.93505,2.5197 1.89328,5.02921 2.87207,7.53223 l 0.85547,2.19922 c 0.93799,2.196 0.93799,2.196 2.39062,4.40625 1.91203,3.30432 3.16572,6.7504 4.44141,10.33203 2.08153,5.70008 4.33703,11.23853 6.91016,16.73828 1.76099,3.82209 3.35757,7.70735 4.96094,11.59766 0.83746,2.02973 1.68386,4.0558 2.53906,6.07812 1.99459,4.72115 3.90675,9.43187 5.58984,14.27344 1.87641,5.28457 4.21871,10.28655 6.62403,15.34424 1.76956,3.73331 3.38805,7.44749 4.7666,11.33935 2.11408,5.76875 4.63038,11.39902 7.02734,17.05469 2.77486,6.58281 5.33288,13.21139 7.70703,19.94922 -6.98942,2.69562 -13.98085,5.38269 -21,8 l -2.15625,0.84766 c -5.52601,2.15234 -5.52601,2.15234 -8.84375,2.15234 l -1.13672,-3.11328 c -2.9903,-8.12258 -6.18478,-16.0467 -9.86328,-23.88672 -1.04321,-2.3716 -2.07801,-4.74653 -3.10547,-7.125 -1.91998,-3.1414 -2.8721,-6.24041 -4.26953,-9.72266 -2.2642,-10.40957 -9.23821,-18.9302 -12.00391,-29.01172 -2.15298,-7.42034 -5.13416,-14.49831 -8.39062,-21.49218 -1.50234,-3.2336 -2.92203,-6.5004 -4.33594,-9.77344 -1.87875,-3.19997 -3.32873,-6.28129 -4.33984,-9.86328 -2.36172,-8.56539 -5.60737,-16.59073 -10.554687,-24.01172 -0.471,-1.61485 -0.93732,-3.23127 -1.375,-4.85547 -2.69562,-9.24936 -6.24213,-18.65434 -10.6875,-27.20703 -1.80476,-3.49672 -3.03422,-7.03756 -4.22656,-10.78125 -1.46227,-4.43502 -3.41189,-8.59766 -5.58594,-12.71875 -2.48535,-4.87547 -4.17129,-10.02197 -5.97266,-15.17969 -1.54156,-4.35817 -3.35302,-8.54266 -5.30468,-12.73047 -2.59242,-5.60245 -4.88613,-11.21334 -6.94922,-17.03125 -1.62454,-4.51339 -3.53832,-8.82081 -5.77344,-13.05859 -1.88507,-3.68412 -3.22042,-7.46236 -4.5625,-11.375 -2.45386,-5.08917 -4.63211,-9.3737 -6.64453,-14.09766 -1.24827,-2.67182 -1.55039,-4.05394 -0.91797,-6.96484 2.21083,-1.76867 4.19186,-3.11453 6.625,-4.5 1.24468,-0.73538 2.4869,-1.47495 3.72656,-2.21875 l 1.84864,-1.10547 c 1.84218,-1.20347 3.47108,-2.52006 5.13574,-3.95703 4.92973,-2.7237 6.378,-7.48659 9.60156,-11.78125 3.73784,-4.97983 7.5625,-14.75 7.5625,-14.75 l 2.57422,-9.58984 c 0,0 1.03661,-7.548 1.23828,-11.34766 -0.077,-5.60405 -1.5931,-11.14913 -2.57802,-16.65625 0,0 -1.3911,-5.9347 -1.73448,-9.09375 l 1.90625,-0.51563 c 5.00332,-1.4166 9.34376,-3.35192 14.07031,-5.50781 5.64324,-2.574008 11.347667,-5.003393 17.085937,-7.351561 3.85389,-1.577059 7.79827,-2.445665 11.64453,-4.523438 3.02061,-1.451125 6.12721,-2.504816 9.29297,-3.601562 4.54885,-1.580738 8.78012,-3.28198 13.02344,-5.539063 2.37664,-1.15544 4.79667,-2.020833 7.28906,-2.898437 4.76005,-1.678473 9.29969,-3.65216 13.875,-5.777344 5.8849,-2.689072 11.89385,-5.098411 17.88672,-7.535156 4.8458,-1.985475 9.58281,-4.03581 14.23828,-6.4375 3.83248,-1.968028 7.5402,-3.127557 11.6875,-4.3125 2.55343,-1.22697 5.05985,-2.531061 7.57422,-3.835937 3.04589,-1.461635 6.17424,-2.271483 9.42578,-3.164063 l 2.5,-1.5 c 3.06651,-1.839902 6.04888,-2.591808 9.5,-3.5 l 3.3125,-1.125 c 2.6875,-0.875 2.6875,-0.875 4.6875,-0.875 z"
     fill="#f98505"
     id="path4"
     sodipodi:nodetypes="ccccccccccccccccccscccccccccccccccccccccccccccccccccccccccccccccccccccccccccccccccccccccccccccccccccccccccccccccccccccccccccccsccscccsaccccccccccsccc" />
  <path
     d="m 522.59851,12.646608 c 0,0 -0.26999,21.392724 -1.2268,31.587163 -0.83303,8.893006 -4.19622,44.04358 -5.7732,50.561768 -2.4766,8.314131 -5.91351,27.617401 -10.28906,40.250001 -1.42849,5.75608 -2.42555,11.20624 -4.08594,16.75 l -0.92187,3.15625 c -1.31791,4.46063 -2.66572,8.8739 -4.33985,13.21484 -1.56003,4.15264 -2.49816,8.27349 -3.42187,12.60157 -0.94252,3.03093 -2.29702,5.48568 -3.92261,8.19946 -1.69034,3.03274 -2.7982,6.25071 -3.9563,9.51538 -0.51669,1.41202 -1.03493,2.82348 -1.55468,4.23437 l -0.76856,2.0918 c -2.72228,7.31455 -6.44429,13.77403 -9.66894,21.00586 -3.22466,7.23183 -8.94098,15.52131 -11.69379,20.28952 -2.75281,4.76821 -1.55673,4.21805 -3.97504,7.79178 -2.41831,3.57373 -5.74646,11.77028 -7.08899,14.02417 -1.34253,2.25389 -1.36548,2.30054 -1.36548,2.30054 -17.35935,29.1304 -37.89391,56.0431 -60.71655,81.0979 -1.24683,1.38439 -2.48664,2.77549 -3.69898,4.19018 -4.90445,5.70933 -10.13638,11.04028 -15.46899,16.34888 l -2.5918,2.60352 c -4.9954,4.98778 -10.10535,9.74902 -15.4707,14.33398 -1.19154,1.04524 -2.38167,2.09209 -3.57031,3.14062 -18.67095,16.36958 -38.50475,31.47617 -59.42969,44.85938 l -2.30127,1.47852 c -27.38245,17.50994 -56.41488,32.67576 -86.69873,44.52148 -1.72934,0.7079 -3.45853,1.41618 -5.1875,2.125 -5.0922,2.02994 -10.26462,3.82898 -15.43359,5.65234 -2.8482,1.03062 -5.64432,2.12539 -8.44141,3.28516 -7.69462,3.13109 -15.67635,5.40728 -23.73584,7.38818 -2.37566,0.59273 -4.74138,1.21801 -7.10791,1.84619 -16.89016,4.42039 -33.91143,7.67429 -51.093747,10.70313 l -2.88818,0.52002 c -22.29547,3.98917 -48.09365,5.1937 -70.70847,4.87961 l 0.19981,-20 10.91637,-0.8801 c 41.81136,-2.77262 82.085597,-9.07554 122.480467,-20.51953 1.42434,-0.39763 2.8488,-0.79483 4.27344,-1.19141 5.13212,-1.44223 11.81309,-3.40942 19.20312,-5.58593 5.27629,-1.83091 10.38143,-4.04729 15.52344,-6.22266 2.04,-0.84854 4.08036,-1.6962 6.12109,-2.54297 22.10796,-9.22915 43.18822,-19.36719 63.87891,-31.45703 l 2.65381,-1.54004 c 25.41624,-14.78641 49.38145,-31.88829 71.34619,-51.45996 l 2.65234,-2.35156 c 2.46253,-2.20189 4.90599,-4.42346 7.34766,-6.64844 l 2.68359,-2.40234 c 6.20716,-5.60076 12.20644,-11.38388 18.12891,-17.28516 l 2.13696,-2.12305 c 4.55346,-4.56688 8.86172,-9.28723 13.05054,-14.18945 l 1.39966,-1.62085 c 10.05123,-11.65898 19.48911,-23.75509 28.6294,-36.13818 4.28983,-4.86598 7.74059,-10.19977 11.43307,-15.49143 2.00586,-2.76143 3.47961,-5.3927 4.5784,-8.61868 1.87652,-4.16749 4.38253,-7.99267 6.77197,-11.88086 4.25129,-6.99322 8.39387,-13.9955 12.1875,-21.25 3.6488,-7.08278 0.92813,-1.89755 8.375,-15.25 3.02373,-5.44908 5.36136,-10.91077 7.50782,-16.75391 1.35326,-3.62921 18.77607,-42.51284 23.68359,-63.34765 2.28875,-8.79172 4.59554,-14.4859 6.11719,-23.04688 0.92965,-7.64384 0.36073,2.21018 2.1914,-9.91406 0.88206,-5.49637 2.03743,-10.879164 3.34375,-16.289064 1.89613,-8.248142 3.17043,-16.264309 3.78125,-24.710937 0.16418,-2.125092 0.32957,-4.250091 0.4961,-6.375 l 0.24951,-3.207031 c 0.38053,-4.645317 0.8502,-9.280672 1.31689,-13.917969 0.64101,-6.466857 1.71932,-20.245662 2.01429,-32.334572 z"
     fill="#03355a"
     id="path5"
     sodipodi:nodetypes="cccccccccccczzzzccccccccccccccccccccccccccccccccccccsccccccccccccccc" />
  <path
     d="m 232.59851,58.795539 h 4 c 2.11328,2.160156 2.11328,2.160156 4.3125,5.0625 12.49699,15.838964 29.47267,26.125761 49.6875,28.9375 4.53945,0.348845 9.07442,0.503245 13.625,0.625 l 3.6211,0.117187 c 2.91782,0.09337 5.83565,0.179149 8.7539,0.257813 l 1.66553,0.136671 1.33447,3.863329 1.23413,3.063231 c 9.37847,23.3472 9.37847,23.3472 19.07837,46.56177 0,0 0.39321,0.94675 1.07202,2.52026 0.67881,1.57352 3.40666,6.72043 4.61548,8.85474 1.20882,2.13431 0.66755,1.93407 1.375,4.1875 0.70745,2.25343 1.93241,5.58883 3.625,8.8125 1.69259,3.22367 3.34972,7.96602 4.28906,11.01953 0.93934,3.05351 1.45617,2.90809 2.71094,4.98047 1.25477,2.07238 0.93457,2.78592 1.375,4.1875 0.94317,3.00144 2.02936,5.72058 3.5,8.5 1.93223,3.6518 3.26955,7.41122 4.625,11.3125 1.93239,5.56183 1.82509,5.61387 4.4375,10.875 1.90431,3.83508 3.4656,7.73781 4.9375,11.75 3.50663,9.54164 7.47667,18.83628 11.75,28.0625 2.08304,4.53329 3.81828,9.13413 5.48047,13.83594 1.16294,3.21967 2.53961,6.33315 3.89453,9.47656 0.90696,2.24554 1.80182,4.49599 2.6875,6.75 l 1.32422,3.35937 c 0.98828,2.89063 1.37683,4.01854 1.37683,4.01854 0,0 -3.68515,5.1739 -5.54613,7.39395 -1.98501,2.36801 -4.07513,5.4571 -6.13597,7.7254 l -1.89395,-3.49726 c -3.39166,-9.03333 -7.28475,-17.87709 -11.03996,-26.76401 -6.94101,-16.42816 -13.83116,-32.8771 -20.65285,-49.35519 -0.81896,-1.97771 -1.6388,-3.95506 -2.45959,-5.93201 -4.06308,-9.79016 -8.04064,-19.58643 -11.69429,-29.53717 -1.44829,-3.90397 -3.06081,-7.60612 -5.00927,-11.28174 -2.05973,-4.04796 -3.68793,-8.29899 -5.39404,-12.50488 l -1.20044,-2.93896 c -2.15413,-5.31398 -4.18569,-10.63889 -6.04956,-16.06104 -1.90377,-5.51961 -4.3352,-10.578 -7.03125,-15.75 -1.07868,-2.20998 -1.8562,-4.194 -2.46875,-6.5625 -0.66541,-3.07934 -0.66541,-3.07934 -2.3125,-5.5625 -1.84105,-3.06842 -2.56431,-6.04966 -3.5,-9.5 -0.50578,-1.41563 -1.02686,-2.82587 -1.5625,-4.23047 l -0.8164,-2.14917 -0.6211,-1.62036 -1.73388,-0.10425 c -27.10033,-1.74483 -52.22747,-8.5297 -71.26612,-29.083251 -2.24142,-2.447743 -2.24142,-2.447743 -5.4375,-3 -2.74713,1.27306 -5.42181,2.665568 -8.10547,4.066406 -5.63906,2.57299 -19.45703,8.121094 -19.45703,8.121094 -2.11718,0.992187 -2.11718,0.992187 -4.875,1.875 -3.99499,1.352309 -7.80723,2.831641 -11.625,4.625 -7.5956,3.515681 -24.5,10.500001 -24.5,10.500001 -2.15234,1.02734 -2.15234,1.02734 -4.9375,1.9375 -3.67151,1.24586 -7.28995,2.5231 -10.875,4 -3.98385,1.61627 -8.00625,3.07519 -12.0625,4.5 -5.69821,2.00747 -11.25657,4.23731 -16.79688,6.64453 -2.3531,0.81806 -4.32812,1.4175 -4.32812,1.4175 l 0.10547,3.27 c 0.30973,15.87636 0.30973,15.87636 -2.32813,23.76563 -0.83199,2.63811 -1.07184,5.19974 -1.58984,7.90234 -1.2519,4.20979 -4.03119,11.87518 -7.1875,17.5625 -4.372737,6.79638 -1.376647,2.44758 -9.374997,13.125 l -1.46094,1.83984 c -2.09024,2.60712 -4.09083,4.96904 -6.57812,7.21485 -1.815,1.65463 -1.815,1.65463 -1.47656,3.69531 0.72924,1.60963 1.30669,3.27719 1.90625,4.9375 2.8832,7.44523 5.88017,14.8319 8.98437,22.1875 4.87684,11.58609 4.87684,11.58609 6.5625,16.1875 2.001487,5.43907 4.366657,10.71365 6.999997,15.875 1.42096,2.90369 2.53147,5.8075 3.63672,8.83984 0.77655,2.0342 1.6412,3.9948 2.55078,5.97266 2.08305,4.59707 3.88079,9.28969 5.6875,14 1.91354,4.98462 3.85377,9.91449 6.125,14.75 2.97889,6.35955 5.3223,12.94773 7.75293,19.53027 0.93505,2.5197 1.89328,5.02921 2.87207,7.53223 l 0.85547,2.19922 c 0.93799,2.196 0.93799,2.196 2.39063,4.40625 1.91202,3.30432 3.16571,6.7504 4.4414,10.33203 2.08153,5.70008 4.33703,11.23853 6.91016,16.73828 1.76099,3.82209 3.35757,7.70735 4.96094,11.59766 0.83746,2.02973 1.68386,4.0558 2.53906,6.07812 1.99459,4.72115 3.90675,9.43187 5.58984,14.27344 1.87641,5.28457 4.21871,10.28655 6.62403,15.34424 1.76956,3.73331 3.38805,7.44749 4.7666,11.33935 2.11408,5.76875 4.63038,11.39902 7.02734,17.05469 2.77486,6.58281 5.08311,12.562 7.45727,19.29982 -2.91949,1.16613 -4.56065,1.92859 -15.50047,6.34875 l -18.24977,-41.69935 c -0.64964,-1.89453 -1.29455,-3.79069 -1.9375,-5.6875 l -1.08984,-3.19922 c -0.84472,-2.70379 -3.97266,-8.11328 -3.97266,-8.11328 l -0.73437,-2.34375 c -1.75036,-5.43958 -3.58658,-10.55161 -6.26172,-15.59766 -1.63413,-3.35092 -2.81847,-6.85397 -4.05469,-10.36718 -0.85912,-2.43595 -1.76796,-4.84488 -2.69922,-7.25391 -1.5679,-3.36686 -3.03807,-5.61411 -3.03807,-5.61411 l -0.94631,-2.16714 c -2.27,-7.09695 -2.27,-7.09695 -5.39062,-13.84375 -2.186,-4.08799 -5.875,-12.8125 -5.875,-12.8125 l -0.73438,-2.34375 c -1.75188,-5.44432 -3.58865,-10.56056 -6.26953,-15.60938 -1.16869,-2.40155 -2.04755,-4.84004 -2.93359,-7.35937 -1.29748,-3.68123 -2.71684,-7.21693 -4.375,-10.75 -2.27433,-4.88457 -4.25415,-9.84882 -6.187497,-14.875 -3.39921,-8.83266 -6.87615,-17.60556 -10.875,-26.1875 -3.58908,-7.80087 -6.54946,-15.86202 -9.625,-23.875 -1.83194,-4.74747 -3.65432,-9.41822 -6,-13.9375 -3.86655,-7.4612 -4.27575,-12.49194 -8.1875,-18.875 -1.83916,-3.23438 -2.41023,-5.15087 -3.51185,-8.68796 l 2.78919,-2.08157 c 11.5648,-9.0583 19.07071,-19.54274 25.91016,-32.41797 l 1.16016,-2.16406 c 0.87778,-1.91887 1.3835,-3.71585 1.83984,-5.77344 2.2965,-5.8866 3.29403,-12.11231 3.47276,-18.39568 0.0614,-2.15959 0.10603,-4.31935 0.15225,-6.47932 0.0382,-1.47073 0.0773,-2.94143 0.11719,-4.41211 0.0957,-3.5916 0.17983,-7.18336 0.25781,-10.77539 11.408707,-5.2808 11.408707,-5.2808 16.687497,-7.0625 3.17431,-1.11771 6.15479,-2.2951 9.125,-3.875 4.74787,-2.4963 9.80718,-4.08283 14.86328,-5.83984 3.27797,-1.205649 6.26305,-2.619378 9.33594,-4.257817 3.33492,-1.618321 6.85055,-2.740636 10.34375,-3.96875 2.26706,-0.853914 4.31971,-1.804933 6.45703,-2.933594 4.74337,-2.50484 9.8198,-4.046924 14.86328,-5.839844 3.29459,-1.1712 6.24449,-2.672952 9.34766,-4.261719 2.35225,-1.204309 7.28906,-2.898437 7.28906,-2.898437 l 13.86328,-5.773437 8.94921,-3.851563 z"
     fill="#f5d147"
     id="path6"
     sodipodi:nodetypes="cccccccccccsssssssssscccccccsccccccccccccccccccccccccccccccccccccccccccccccccccccccccccccccccccccccccccccccccccccccsccccccccssscccc" />
  <path
     d="m 171.59851,239.79554 c 2.92041,4.57845 4.1004,8.60418 4,14 -0.55873,0.2214 -1.11745,0.44279 -1.69311,0.6709 -2.58222,1.02446 -5.16331,2.05177 -7.74439,3.0791 -0.87849,0.34805 -1.75699,0.69609 -2.66211,1.05469 -0.87334,0.34804 -1.74668,0.69609 -2.64648,1.05468 -0.87511,0.3487 -1.75023,0.69739 -2.65186,1.05664 -3.26618,1.36066 -6.44549,2.88229 -9.61401,4.45606 -2.42564,0.76615 -3.64022,0.55575 -5.98804,-0.37207 -2.45451,-3.02094 -3.29439,-5.95302 -4.08593,-9.6875 -0.17322,-0.80824 -0.34644,-1.61649 -0.52491,-2.44922 -0.12842,-0.61488 -0.25684,-1.22977 -0.38916,-1.86328 3.64725,-1.54973 7.29513,-3.09795 10.94361,-4.64478 1.24073,-0.52628 2.48129,-1.05296 3.72168,-1.58007 1.78429,-0.75817 3.56926,-1.51473 5.35424,-2.27124 1.07355,-0.45561 2.1471,-0.91121 3.25318,-1.38062 6.85494,-2.82335 6.85494,-2.82335 10.72729,-1.12329 z"
     fill="#f5cf45"
     id="path10" />
  <path
     d="m 236.59851,212.79554 c 1.01172,1.89062 1.01172,1.89062 1.6875,4.25 0.34612,1.15242 0.34612,1.15242 0.69922,2.32812 0.62337,2.4617 1.14002,4.92731 1.61328,7.42188 -2.73567,1.14381 -5.47251,2.28467 -8.21093,3.42187 -2.75942,1.14643 -5.51317,2.30574 -8.26563,3.46875 -1.52858,0.64079 -3.05722,1.28142 -4.58594,1.92188 -0.7379,0.31397 -1.47581,0.62793 -2.23608,0.95142 -3.04811,1.27118 -5.36459,2.23608 -8.70142,2.23608 -1.00732,-1.9337 -2.00563,-3.8721 -3,-5.8125 -0.55687,-1.07895 -1.11375,-2.15789 -1.6875,-3.26953 -1.3125,-2.91797 -1.3125,-2.91797 -1.3125,-5.91797 3.62795,-1.55206 7.25754,-3.1002 10.88867,-4.64478 1.84007,-0.78367 3.67884,-1.5704 5.51758,-2.35717 1.16016,-0.49307 2.32032,-0.98614 3.51563,-1.49414 1.60246,-0.68341 1.60246,-0.68341 3.2373,-1.38062 7.08273,-2.80059 7.08273,-2.80059 10.84082,-1.12329 z"
     fill="#f5d045"
     id="path11" />
  <path
     d="m 299.59944,184.99628 c 1.03049,0.69577 1.49381,1.16877 2.48544,4.22047 0.99164,3.0517 2.71013,6.79455 3.91326,10.27907 -2.31676,1.19505 -14.13853,6.32496 -16.70773,7.24821 -7.18846,2.58318 -3.45609,0.61978 -16.39218,5.3503 -1.1976,-1.72796 -2.04021,-4.07068 -3.04972,-6.11129 -0.43534,-0.88001 -1.00645,-1.70667 -1.29687,-2.64453 -0.65195,-2.10538 -2.63359,-5.11689 -0.95313,-6.54297 1.86226,-1.58036 10.9547,-5.37027 18.26172,-7.61719 4.54386,-1.39724 9.61676,-3.07608 13.73921,-4.18207 z"
     fill="#f5d146"
     id="path12"
     sodipodi:nodetypes="czczcaassc" />
  <path
     d="m 93.843386,549.16004 c 1.755127,1.6355 1.755127,1.6355 2.255127,4.073 -0.67542,3.46153 -1.718324,4.39122 -4.5,6.5625 -2.748361,0.88119 -5.521584,1.28792 -8.375,1.6875 -0.7425,0.11666 -1.485,0.23332 -2.25,0.35351 -1.458978,0.22813 -2.919203,0.44844 -4.380615,0.66041 -1.69021,0.25304 -3.372889,0.55562 -5.052979,0.86889 -3.56599,0.52093 -7.025803,0.59926 -10.628906,0.61719 -1.303242,0.0142 -2.606484,0.0284 -3.949219,0.043 -3.363281,-0.23047 -3.363281,-0.23047 -6.363281,-2.23047 -0.714454,-5.62632 -0.714454,-5.62632 0,-8 3.572323,-2.57098 6.480836,-3.47129 10.824219,-3.94922 1.667724,-0.18853 1.667724,-0.18853 3.36914,-0.38086 1.7296,-0.17692 1.7296,-0.17692 3.494141,-0.35742 1.13373,-0.12955 2.267461,-0.2591 3.435547,-0.39258 18.139494,-1.976 18.139494,-1.976 22.121826,0.44458 z"
     fill="#ec7f0b"
     id="path13" />
  <path
     d="m 529.59851,191.79554 c 1.88561,0.007 4.1239,2.11846 4,4 -1.58753,9.70441 -6.22617,18.55199 -9.94531,27.53516 -2.0117,4.01094 -2.9802,9.58518 -7.05469,11.46484 -2.08692,0.96275 -5.20585,0.58091 -6.8125,-1.0625 -2.10092,-2.149 -1.57643,-5.95742 -1.1875,-8.9375 0.33865,-2.59477 1.98102,-4.84424 2.99656,-7.25593 1.95047,-4.63189 3.46366,-9.35419 5.94729,-13.85491 2.72694,-4.94163 6.41209,-11.90884 12.05615,-11.88916 z"
     fill="#eb7e0c"
     id="path14"
     sodipodi:nodetypes="asaaaaasa" />
  <path
     d="m 536.59851,63.795539 c 7.24083,4.18234 1.67541,16.7331 0.98438,25.066406 -0.17573,2.119163 -0.86121,4.164765 -1.29688,6.246094 -0.21327,1.018901 -0.31196,2.069315 -0.64477,3.055664 -1.25401,3.716517 -1.72775,8.535187 -5.04273,10.631837 -1.69029,1.06907 -4.58123,1.40964 -6,0 -6.8723,-6.82811 -0.81562,-19.395184 -0.1875,-29.062501 0.0799,-1.229524 0.32812,-2.442317 0.50196,-3.662109 0.16629,-1.166921 0.34608,-2.33188 0.51757,-3.498047 0.15433,-1.049425 -0.15263,-2.282921 0.46021,-3.148682 2.32972,-3.291227 7.21604,-7.645501 10.70776,-5.628662 z"
     fill="#e87e0e"
     id="path15"
     sodipodi:nodetypes="aaaaaaaaaaa" />
  <path
     d="m 466.47351,308.48304 c 3.125,0.3125 3.125,0.3125 5.0625,1.875 1.47106,3.37479 1.13889,6.01233 0.0625,9.4375 -1.76235,3.13741 -3.88093,5.95565 -6.0625,8.8125 -0.58982,0.7881 -1.17965,1.5762 -1.78735,2.38818 -1.17324,1.56185 -2.35237,3.11929 -3.53784,4.67188 -1.37969,1.8205 -2.71973,3.65971 -4.04199,5.52197 -0.66258,0.90105 -1.32516,1.80211 -2.00782,2.73047 -0.55558,0.7657 -1.11117,1.53141 -1.68359,2.32031 -1.87891,1.55469 -1.87891,1.55469 -4.98438,1.86719 -2.89453,-0.3125 -2.89453,-0.3125 -4.76953,-1.4375 -1.73342,-2.88904 -1.56207,-4.51262 -1.125,-7.875 1.70742,-3.1177 3.83548,-5.87451 6,-8.6875 0.59072,-0.79076 1.18143,-1.58152 1.79004,-2.39624 1.18115,-1.58061 2.36758,-3.15729 3.55957,-4.72974 2.17797,-2.88548 4.28967,-5.81404 6.40039,-8.74902 3.91296,-5.40087 3.91296,-5.40087 7.125,-5.75 z"
     fill="#f08009"
     id="path16" />
  <path
     d="m 473.28601,249.10804 c 3.3125,0.6875 3.3125,0.6875 6.3125,2.6875 1.40923,11.69558 -5.52119,15.00169 -10.8125,24.9375 l -1.00195,1.80273 c -2.36041,4.14544 -3.06802,7.40947 -7.28638,9.66126 -2.81195,1.50103 -4.08667,1.59851 -6.89917,0.59851 -2,-2 -2,-2 -2.15893,-3.83008 0.62262,-6.53498 2.92147,-11.13763 6.34643,-16.66992 l 1.42383,-2.39453 c 1.43277,-2.38859 2.90483,-4.74833 4.38867,-7.10547 l 1.57202,-2.57349 1.5608,-2.47729 1.39892,-2.24732 c 1.46826,-1.7019 1.46826,-1.7019 5.15576,-2.3894 z"
     fill="#ee7f0a"
     id="path17"
     sodipodi:nodetypes="ccccsccccccccc" />
  <path
     d="m 124.59851,516.79554 c 2,2 2,2 2.375,4.875 -0.46666,3.88885 -1.38133,4.68609 -4.375,7.125 -11.08456,3.99876 -25.240783,5.97993 -36.999997,5 -2.582804,-2.01081 -2.956314,-2.65051 -3.375,-6 0.375,-3 0.375,-3 1.505615,-4.60083 2.613294,-1.95596 4.944964,-2.23825 8.154541,-2.78589 1.88042,-0.32388 1.88042,-0.32388 3.798828,-0.6543 0.981662,-0.15916 0.981662,-0.15916 1.983155,-0.32153 1.966498,-0.32025 3.929248,-0.66326 5.891848,-1.00659 15.03547,-2.5251 15.03547,-2.5251 21.04101,-1.63086 z"
     fill="#f28008"
     id="path18" />
  <path
     d="m 382.34851,407.92054 c 2.25,0.875 2.25,0.875 4.25,2.875 0.625,3.125 0.625,3.125 0,7 -4.93087,6.75763 -12.51165,11.83147 -19,17 -0.83402,0.70125 -1.66804,1.4025 -2.52734,2.125 -0.77473,0.63937 -1.54945,1.27875 -2.34766,1.9375 -1.01707,0.85271 -1.01707,0.85271 -2.05468,1.72266 -2.55406,1.4987 -4.15392,1.52437 -7.07032,1.21484 -1.8125,-1.0625 -1.8125,-1.0625 -3,-3 -0.4414,-3.28516 -0.4414,-3.28516 0,-7 1.95489,-2.17551 3.57192,-3.66742 5.875,-5.375 1.1979,-0.94499 2.3945,-1.89162 3.58985,-2.83984 0.89694,-0.69779 0.89694,-0.69779 1.81201,-1.40967 2.49344,-1.99038 4.82134,-4.14512 7.16064,-6.31299 9.02311,-8.13247 9.02311,-8.13247 13.3125,-7.9375 z"
     fill="#f78104"
     id="path19" />
  <path
     d="m 501.09851,190.04554 c 2.5,0.75 3.28692,0.20419 4.50093,3.59921 1.2916,3.61197 -2.08421,12.99038 -3,15 -1.29411,2.83984 -2.10523,5.62181 -3.58296,8.2797 -1.11189,2.25136 -2.14664,4.49016 -3.10547,6.80859 l -1.3125,3.0625 -1.25,2.9375 c -1.75,2.0625 -1.75,2.0625 -5.3125,2.5 -3.4375,-0.4375 -3.28437,-0.1279 -4.83805,-2.58736 -1.47838,-2.34025 -0.39636,-5.35624 -0.18148,-8.02592 0.65118,-3.15975 1.86096,-5.116 3.58203,-7.82422 0.66923,-1.6915 1.29359,-3.40135 1.875,-5.125 6.80204,-19.2073 6.80204,-19.2073 12.625,-18.625 z"
     fill="#ee7f0a"
     id="path20"
     sodipodi:nodetypes="csscccccscccc" />
  <path
     d="m 245.59851,472.79554 c 2.3125,1.125 2.3125,1.125 4,3 0.875,2.8125 0.875,2.8125 0,6 -7.98883,7.13643 -25.85916,16.03085 -36.625,17.3125 -2.375,-0.3125 -2.375,-0.3125 -4.1875,-1.375 -1.77465,-2.89548 -1.3602,-5.45992 0.8606,-7.93843 3.97935,-4.44115 8.60683,-6.35536 13.9519,-8.99907 l 2.34571,-1.16406 c 2.27527,-1.12331 4.55725,-2.23163 6.84179,-3.33594 l 2.13843,-1.06055 c 3.67951,-1.75986 6.57298,-2.98923 10.67407,-2.43945 z"
     fill="#f28007"
     id="path21"
     sodipodi:nodetypes="cccccsccccc" />
  <path
     d="m 334.59851,450.79554 c 2,2 2,2 2.64063,4.72656 -0.86836,4.4371 -2.83378,5.49403 -6.43238,8.0188 -0.81122,0.53778 -1.62244,1.07556 -2.45825,1.62964 -0.8196,0.56292 -1.6392,1.12583 -2.48364,1.70581 -1.64836,1.12871 -3.30238,2.24922 -4.96216,3.36108 -2.00593,1.35642 -3.97139,2.74948 -5.92529,4.1792 -1.51787,1.08475 -1.51787,1.08475 -3.06641,2.19141 -0.87011,0.62519 -1.74023,1.25039 -2.63672,1.89453 -3.4444,1.66437 -5.89895,1.73651 -9.67578,1.29297 -2.51447,-3.77171 -2.63916,-5.53519 -2,-10 2.12844,-2.13139 3.82822,-3.50695 6.31641,-5.09375 0.64928,-0.43639 1.29856,-0.87278 1.96751,-1.32239 1.3752,-0.91572 2.75846,-1.81944 4.14894,-2.71179 2.11924,-1.36537 4.20338,-2.77466 6.28785,-4.19238 1.34255,-0.88562 2.6869,-1.76853 4.0332,-2.64844 0.62008,-0.42068 1.24017,-0.84136 1.87904,-1.27478 4.46894,-2.81422 7.29595,-3.15841 12.36705,-1.75647 z"
     fill="#f48006"
     id="path22" />
  <path
     d="m 519.91101,127.54554 c 2.38072,-0.6892 5.57371,1.03589 6.6875,3.25 3.1344,6.23085 -2.12655,13.81039 -3.875,20.5625 -0.57813,2.2326 -1.44962,4.37877 -2.17968,6.56641 -0.34309,1.02805 -0.7057,2.0497 -1.03418,3.08252 -0.73887,2.32311 -1.22824,4.72931 -2.10645,7.00341 -0.50355,1.30394 -0.57158,3.12694 -1.80469,3.78516 -2.59463,1.38498 -6.68949,0.84037 -8.73047,-1.27734 -1.83779,-1.9069 -1.05895,-5.25762 -0.85937,-7.89844 0.40091,-5.30479 2.62059,-10.31385 4.09124,-15.42645 0.73788,-2.5652 1.266,-5.21921 2.3736,-7.64777 1.95277,-4.2817 2.91713,-10.69138 7.4375,-12 z"
     fill="#ef7f0a"
     id="path23"
     sodipodi:nodetypes="aaaaaaaaaaaa" />
  <path
     d="m 219.59851,513.79554 c 2,2 2,2 2.3125,4.9375 -0.3125,3.0625 -0.3125,3.0625 -1.43261,4.5874 -2.57229,2.01841 -5.2152,2.97818 -8.27051,4.13916 -0.62284,0.23754 -1.24568,0.47508 -1.88739,0.71982 -1.31647,0.49971 -2.63449,0.99536 -3.95392,1.48721 -2.00144,0.7477 -3.99618,1.51147 -5.99072,2.27735 -1.28479,0.48535 -2.56993,0.96976 -3.85547,1.45312 -1.15919,0.43651 -2.31838,0.87302 -3.5127,1.32276 -8.95583,2.82579 -8.95583,2.82579 -12.34668,1.07568 -1.66467,-3.1335 -1.49673,-5.52617 -1.0625,-9 4.40922,-4.2081 10.70495,-5.84506 16.30738,-7.98096 1.9947,-0.76504 3.97905,-1.55357 5.96411,-2.34326 1.28003,-0.49236 2.56061,-0.98329 3.84179,-1.47266 1.15283,-0.44698 2.30565,-0.89396 3.49341,-1.35449 3.88232,-0.97093 6.51827,-0.77379 10.39331,0.15137 z"
     fill="#f38007"
     id="path24" />
  <path
     d="m 300.09851,440.04554 c 2.5,0.75 2.5,0.75 5.5,2.75 0.625,2.75 0.625,2.75 0,6 -4.62002,5.27781 -11.14348,8.70196 -17.125,12.1875 -0.88043,0.52014 -1.76086,1.04027 -2.66797,1.57617 -1.6788,0.99133 -3.36021,1.97827 -5.04467,2.95996 -1.71554,1.01263 -3.40337,2.07215 -5.08033,3.14746 -2.08203,1.12891 -2.08203,1.12891 -5.26953,1.00391 -2.8125,-0.875 -2.8125,-0.875 -4.8125,-3.875 -0.46875,-2.95313 -0.46875,-2.95313 0,-6 2.28125,-1.98438 2.28125,-1.98438 5.5,-3.75 1.18577,-0.67295 2.37062,-1.34751 3.55469,-2.02344 0.95278,-0.53125 0.95278,-0.53125 1.92481,-1.07324 3.61708,-2.06466 7.12358,-4.30658 10.6455,-6.52832 1.34628,-0.84127 2.69263,-1.68242 4.03907,-2.52344 6.48672,-4.08648 6.48672,-4.08648 8.83593,-3.85156 z"
     fill="#f38007"
     id="path25" />
  <path
     d="m 351.16101,400.35804 c 3.01775,0.54165 4.37737,1.14846 6.4375,3.4375 0.36328,2.85547 0.36328,2.85547 0,6 -1.69531,2.16797 -1.69531,2.16797 -4.125,4.1875 -1.35545,1.14082 -1.35545,1.14082 -2.73828,2.30469 -1.04315,0.83896 -2.08888,1.67471 -3.13672,2.50781 -0.58314,0.46696 -1.16628,0.93392 -1.76709,1.41504 -3.53505,2.82241 -7.09382,5.61217 -10.6792,8.37036 -1.45947,1.14093 -2.88497,2.32493 -4.30761,3.51147 -2.2461,1.70313 -2.2461,1.70313 -4.8711,2.14063 -2.375,-0.4375 -2.375,-0.4375 -4.1875,-1.5 -1.90156,-3.10256 -1.61094,-5.3701 -1.1875,-8.9375 1.95424,-2.20235 3.56484,-3.70904 5.875,-5.4375 0.58846,-0.46737 1.17692,-0.93473 1.78321,-1.41626 1.19767,-0.94838 2.40245,-1.88786 3.61425,-2.81812 2.44397,-1.87891 4.83177,-3.82584 7.22754,-5.76562 1.49917,-1.18855 2.99915,-2.37608 4.5,-3.5625 0.86496,-0.72445 1.72992,-1.44891 2.6211,-2.19531 2.3789,-1.80469 2.3789,-1.80469 4.9414,-2.24219 z"
     fill="#f38007"
     id="path26" />
  <path
     d="m 427.39539,360.27601 c 2.20312,0.51953 2.20312,0.51953 4.01562,2.14453 1.60056,3.20112 1.70972,4.80369 1.1875,8.375 -1.88404,2.75827 -4.19387,5.03054 -6.5625,7.375 -1.28989,1.32471 -2.57896,2.65022 -3.86718,3.97656 -0.61972,0.62939 -1.23944,1.25877 -1.87793,1.90723 -2.56971,2.64384 -4.96775,5.42263 -7.36036,8.22558 -0.43957,0.50016 -0.87914,1.00032 -1.33203,1.51563 -0.48082,0.5543 -0.96164,1.10859 -1.45703,1.67969 -1.54297,1.32031 -1.54297,1.32031 -5.04297,1.69531 -3.5,-0.375 -3.5,-0.375 -5.4375,-1.5625 -1.49358,-2.54788 -1.47498,-3.87512 -1.0625,-6.8125 1.6443,-2.16228 3.22239,-3.96705 5.125,-5.875 1.09838,-1.13603 2.196,-2.27278 3.29297,-3.41016 0.87278,-0.89549 0.87278,-0.89549 1.76319,-1.80908 1.89996,-1.99075 3.73213,-4.02977 5.55712,-6.08935 0.61666,-0.68788 1.23331,-1.37576 1.86866,-2.08448 1.20364,-1.34426 2.3983,-2.69664 3.583,-4.05761 4.13323,-4.5486 4.13323,-4.5486 7.60694,-5.19385 z"
     fill="#f38007"
     id="path27" />
  <path
     d="m 500.03601,252.60804 c 1.94903,-0.41344 4.67337,0.4045 5.5625,2.1875 2.77896,5.57272 -2.76385,12.18816 -5,18 -0.26765,0.69564 -0.63187,1.35189 -1,2 -2.30908,4.0653 -5.02928,7.88295 -7.5625,11.8125 -0.62326,0.96681 -1.04534,2.10185 -1.8789,2.89453 -3.89084,3.70001 -7.83442,3.32985 -11.2142,2.06337 -4.02795,-4.15477 2.06778,-11.25942 4.2181,-16.5204 0.34432,-0.84241 0.91161,-1.57539 1.37085,-2.36108 0.9148,-1.56509 1.84218,-3.1228 2.75806,-4.68726 1.16981,-1.99822 2.08977,-4.16299 3.49609,-6.00244 2.66805,-3.48978 4.95279,-8.47517 9.25,-9.38672 z"
     fill="#ef7f09"
     id="path28"
     sodipodi:nodetypes="aaaaassaaaaa" />
  <path
     d="m 277.59851,484.79554 c 2.30462,2.07415 2.8948,3.47399 3.5,6.5 -0.71927,3.59636 -2.55713,4.39158 -5.5,6.5 -2.01782,1.1204 -4.06768,2.1844 -6.14062,3.19922 l -3.49219,1.72461 c -1.20557,0.58821 -2.4113,1.1761 -3.61719,1.76367 -2.38161,1.16775 -4.76124,2.33941 -7.14062,3.51172 l -3.18848,1.55737 c -3.70994,2.21923 -7.19087,3.56088 -11.2959,1.11841 -1.69952,-2.83254 -1.65341,-4.63847 -1.125,-7.875 4.45783,-4.45782 10.39779,-6.84572 16,-9.5625 1.95923,-0.95782 3.91759,-1.91739 5.875,-2.87891 l 2.61719,-1.27173 c 2.56727,-1.27397 2.56727,-1.27397 5.13281,-2.91943 3.04688,-1.75427 4.91515,-1.89393 8.375,-1.36743 z"
     fill="#f38007"
     id="path29"
     sodipodi:nodetypes="ccccccccccccccc" />
  <path
     d="m 159.59851,536.79554 c 1.03098,1.62363 0.64403,5.04489 -1.03515,7.53516 -2.95227,2.20099 -6.27674,3.00034 -9.77735,3.96484 l -2.28466,0.64722 c -19.31099,5.37319 -19.31099,5.37319 -27.90284,4.85278 -3,-2 -3,-2 -3.39843,-3.875 l 0.0234,-2.125 -0.0234,-2.125 c 0.39843,-1.875 0.39843,-1.875 3.39843,-3.875 4.15829,-1.21858 8.38308,-2.16645 12.60425,-3.1416 2.06112,-0.47827 4.118,-0.97233 6.17505,-1.46778 16.83742,-3.97948 20.4174,-3.23054 22.2207,-0.39062 z"
     fill="#f38007"
     id="path30"
     sodipodi:nodetypes="sccccccccccs" />
  <path
     d="m 42.296267,526.72913 c 2.725831,-0.0579 5.450941,-0.0946 8.177246,-0.12109 l 2.611572,-0.0398 2.443116,-0.003 2.163574,-0.0124 c 1.906738,0.24292 4.185238,1.88985 4.831808,3.7665 0.465649,1.35153 0.715161,3.63247 -1.30007,6.28892 -7.277129,5.3179 -22.166063,3.32767 -30.9375,3.4375 l -2.766846,0.0647 -2.596435,0.0134 -2.309815,0.0283 c -2.581858,-0.45686 -4.491924,-0.81265 -5.014404,-3.35645 -0.573355,-2.79149 -0.757519,-3.5253 0,-6 1.063476,-3.47422 7.704181,-3.53047 12.5625,-3.6875 l 2.20166,-0.0969 c 3.310433,-0.12981 6.62169,-0.20047 9.933594,-0.28199 z"
     fill="#f58105"
     id="path31"
     sodipodi:nodetypes="cccccscccccssccc" />
  <path
     d="m 560.59851,64.795539 c 2.3177,0.686558 2.74172,4.152431 3.14014,6.536621 0.15831,0.947334 -0.22603,1.9076 -0.33545,2.861817 -0.12281,1.070983 -0.23019,2.143752 -0.36035,3.213867 -0.13751,1.130571 -0.29991,2.257986 -0.44434,3.387695 -0.14397,1.126164 -0.27097,2.254496 -0.4209,3.379883 -0.45549,3.419058 -0.97629,6.829107 -1.4541,10.245117 -0.16514,1.180659 -0.31877,2.362928 -0.48828,3.542969 -0.16154,1.124639 -0.33831,2.247042 -0.5039,3.371092 -0.14912,1.01222 -0.0239,2.10331 -0.44092,3.0376 -0.78282,1.75375 -1.90447,3.72081 -3.6919,4.42334 -2.46269,0.96793 -6.16215,1.01691 -7.875,-1 -5.02131,-5.9127 0.0945,-15.535465 0.84644,-23.256105 0.20306,-2.085088 0.65232,-4.138829 0.98755,-6.206787 0.21424,-1.321595 0.43768,-2.641682 0.65429,-3.96289 0.19708,-1.202009 -0.0931,-2.596321 0.58716,-3.60669 2.13607,-3.172412 6.13254,-7.053787 9.79956,-5.967529 z"
     fill="#f07f09"
     id="path32"
     sodipodi:nodetypes="aaaaaaaaaaaaaaaaa" />
  <path
     d="m 441.59851,304.79554 c 1.875,1.5625 1.875,1.5625 3,4 -0.26761,5.74331 -1.8275,8.72092 -5.4375,13.125 -0.91257,1.12149 -1.824,2.24391 -2.73437,3.36719 -0.46858,0.57202 -0.93715,1.14404 -1.41992,1.73339 -1.41528,1.78333 -2.73844,3.60827 -4.04883,5.46973 -0.42741,0.59539 -0.85481,1.19077 -1.29517,1.8042 -1.19087,1.66542 -2.36816,3.34053 -3.54468,5.01611 -3.15392,3.10992 -5.15504,3.38682 -9.51953,3.48438 -1.9375,-1.0625 -1.9375,-1.0625 -3,-3 -0.46848,-3.83506 -0.25871,-5.58303 1.80078,-8.90234 0.82887,-1.00161 1.65774,-2.00321 2.51172,-3.03516 0.91484,-1.12723 1.82751,-2.25621 2.73828,-3.38672 0.48034,-0.59087 0.96068,-1.18175 1.45557,-1.79053 3.11522,-3.93196 5.99879,-8.04121 8.91284,-12.12329 3.25673,-4.50301 4.85379,-6.46038 10.58081,-5.76196 z"
     fill="#f28007"
     id="path33" />
  <path
     d="m 399.34851,355.92054 c 3.25,0.875 3.25,0.875 4.25,1.875 0.55312,3.38783 0.7737,5.89568 -1.26147,8.80054 -0.56211,0.61109 -1.12423,1.22219 -1.70337,1.8518 -0.63599,0.69537 -1.27198,1.39074 -1.92725,2.10718 -0.69561,0.73936 -1.39122,1.47872 -2.10791,2.24048 -0.71494,0.76965 -1.42989,1.5393 -2.1665,2.33227 -2.27191,2.41654 -4.57888,4.79457 -6.896,7.16773 -0.77666,0.82242 -1.55332,1.64484 -2.35351,2.49219 -0.76119,0.77601 -1.52239,1.55203 -2.30664,2.35156 -0.67813,0.70318 -1.35626,1.40637 -2.05493,2.13086 -2.90345,1.99283 -4.77096,1.8873 -8.22242,1.52539 -1.875,-1.125 -1.875,-1.125 -3,-3 -0.46468,-3.76166 -0.4185,-5.42728 1.84839,-8.52954 0.84796,-0.81654 1.69592,-1.63308 2.56958,-2.47437 1.38736,-1.35835 1.38736,-1.35835 2.80274,-2.74414 0.98855,-0.93855 1.97749,-1.87669 2.96679,-2.81445 0.97078,-0.94064 1.94019,-1.88269 2.90821,-2.82617 1.79623,-1.74403 3.59857,-3.48182 5.40893,-5.21118 1.74835,-1.68164 3.43758,-3.4259 5.07861,-5.21241 2.41675,-2.18774 2.41675,-2.18774 6.16675,-2.06274 z"
     fill="#f58006"
     id="path34" />
  <path
     d="m 186.59851,498.79554 c 1.75298,0.93402 2.45084,3.45126 2.4375,5.4375 -0.0125,1.86062 -0.99646,3.78743 -2.35156,5.0625 -3.36379,3.16513 -8.56908,3.45319 -12.89844,5.0625 -0.86734,0.32241 -1.72676,0.67519 -2.61914,0.91992 -7.39882,2.02911 -15.1723,6.55677 -22.56836,4.51758 -0.57455,-0.15841 -1.02981,-0.68242 -1.32562,-1.19981 -0.70533,-1.23368 -0.68724,-2.76489 -0.86188,-4.17519 -0.1009,-0.81484 -0.14311,-1.64074 -0.10547,-2.46094 0.0334,-0.72717 -0.15173,-1.58775 0.29297,-2.16406 2.03735,-2.6403 6.11283,-2.68109 9.25,-3.8125 4.49512,-1.62115 9.0434,-3.1381 13.6897,-4.2544 5.61055,-1.34796 11.96786,-5.64646 17.0603,-2.9331 z"
     fill="#f78104"
     id="path35"
     sodipodi:nodetypes="aaaaaaaaaaaaa" />
  <path
     d="m 544.44617,129.69788 c 1.74446,-1.07873 4.77632,-1.4233 6.15235,0.0977 4.82511,5.33333 -0.48691,14.43113 -1.8125,21.5 -0.17189,0.9166 -0.5225,1.7905 -0.79102,2.68359 -0.78467,2.60977 -1.6119,5.20661 -2.39648,7.81641 -0.25911,0.86187 -0.50408,1.72796 -0.76319,2.58984 -0.24506,0.81515 -0.44177,1.64741 -0.74853,2.44141 -0.29331,0.75916 -0.58615,1.53337 -1.03967,2.20915 -0.94765,1.41205 -1.79473,3.36384 -3.44861,3.7596 -2.76981,0.66278 -7.77715,-0.16074 -8,-3 -0.31162,-3.97023 2.74384,-16.16551 4,-20 0.87461,-2.66982 1.42351,-3.58716 1.875,-5.5625 1.68212,-5.10363 2.40222,-11.70892 6.97265,-14.53516 z"
     fill="#f38007"
     id="path36"
     sodipodi:nodetypes="aaaaaaaaassaa" />
  <path
     d="m 567.88109,12.700542 c 0,0 -0.0485,9.551961 0.0299,13.782497 l 0.12696,3.630859 c 0.13817,9.921008 0.13817,9.921008 -2.75977,13.013672 -2.67969,1.667969 -2.67969,1.667969 -5.86719,1.667969 -2.8125,-1 -2.81731,-0.738602 -4.10605,-4.105967 -1.01089,-2.641386 -0.9335,-2.713125 -0.90176,-6.093252 l 0.0195,-3.662109 0.0508,-3.826172 0.0273,-3.861328 c 0.0236,-3.150578 0.027,-10.546169 0.027,-10.546169 l 6.64195,-0.07065 z"
     fill="#ea7f0f"
     id="path37"
     sodipodi:nodetypes="cccccsccccccc" />
  <path
     d="m 543.44625,12.947799 c 0,0 0.63208,21.242713 -0.84774,26.84774 -0.48134,1.823147 -3.01097,4 -3.01097,4 -3.375,0.1875 -3.86951,0.1875 -7.49451,0 -2.36009,-3.540132 -2.72915,-5.01122 -2.68983,-9.199219 l 0.0195,-3.662109 0.0508,-3.826172 0.0273,-3.861328 c 0.0236,-3.150578 0.16831,-10.228267 0.16831,-10.228267 z"
     fill="#f48109"
     id="path38"
     sodipodi:nodetypes="cscccccccc" />
  <path
     d="m 18.495818,554.19517 c 0,0 4.940168,-0.0928 6.711199,-0.125 l 2.988282,-0.0703 c 2.699218,0.19531 5.452633,1.12634 5.699218,2.19531 0.436397,1.89182 1.50592,6.7141 -1.4375,8.9375 -3.301051,2.49355 -17.606877,1.63696 -17.606877,1.63696 l -0.300651,-12.22478 z"
     fill="#f38109"
     id="path41"
     sodipodi:nodetypes="cccssccc" />
  <path
     d="m 372.59851,639.79554 c 1.32,0.66 2.64,1.32 4,2 -0.33,0.99 -0.66,1.98 -1,3 -1.32,-0.33 -2.64,-0.66 -4,-1 0.33,-1.32 0.66,-2.64 1,-4 z"
     fill="#f2f2f2"
     id="path56" />
  <path
     d="m 402.59851,640.79554 c 0.99,0.33 1.98,0.66 3,1 -0.33,0.99 -0.66,1.98 -1,3 -0.66,-0.33 -1.32,-0.66 -2,-1 0,-0.99 0,-1.98 0,-3 z"
     fill="#f6f6f6"
     id="path59" />
  <path
     d="m 343.59851,641.79554 c 2,1 2,1 2,1 z"
     fill="#ffffff"
     id="path61" />
</svg>
